<?xml version="1.0" standalone="no"?>
<!DOCTYPE svg PUBLIC "-//W3C//DTD SVG 20010904//EN"
 "http://www.w3.org/TR/2001/REC-SVG-20010904/DTD/svg10.dtd">
<svg version="1.0" xmlns="http://www.w3.org/2000/svg"
 width="234.000000pt" height="215.000000pt" viewBox="0 0 234.000000 215.000000"
 preserveAspectRatio="xMidYMid meet">

<g transform="translate(0.000000,215.000000) scale(0.100000,-0.100000)"
fill="#000000" stroke="none">
<path d="M1175 1993 c-75 -39 -115 -104 -115 -186 0 -111 79 -197 188 -205 91
-7 163 37 203 123 45 97 0 223 -95 266 -51 23 -140 24 -181 2z"/>
<path d="M475 1519 c-80 -20 -108 -81 -55 -120 14 -11 67 -28 119 -39 52 -11
96 -22 99 -25 2 -2 2 -11 -1 -20 -5 -11 -21 -15 -62 -15 -44 0 -57 4 -67 20
-10 16 -24 20 -70 20 l-57 0 11 -31 c16 -46 62 -62 180 -62 82 0 103 4 145 24
43 22 48 27 48 58 0 46 -31 67 -125 86 -118 24 -120 25 -120 40 0 31 105 27
125 -4 8 -13 102 -15 109 -2 11 16 -6 41 -37 58 -38 19 -184 27 -242 12z"/>
<path d="M820 1385 l0 -135 170 0 170 0 0 30 0 30 -105 0 -105 0 0 25 c0 25 0
25 95 25 l95 0 0 30 0 30 -95 0 c-95 0 -95 0 -95 25 l0 25 100 0 100 0 0 25 0
25 -165 0 -165 0 0 -135z"/>
<path d="M1210 1385 l0 -135 60 0 59 0 3 91 3 92 79 -92 79 -91 83 0 84 0 0
135 0 135 -60 0 -59 0 -3 -91 -3 -92 -79 92 -80 91 -83 0 -83 0 0 -135z"/>
<path d="M1761 1388 l-92 -133 58 -3 c52 -3 59 -1 76 22 18 25 24 26 110 26
86 0 92 -2 112 -26 18 -23 26 -25 82 -22 l62 3 -86 133 -86 132 -72 0 -72 0
-92 -132z m184 29 c14 -24 25 -47 25 -50 0 -4 -25 -7 -55 -7 -30 0 -55 2 -55
5 0 5 54 95 57 95 1 0 14 -20 28 -43z"/>
<path d="M297 1173 c-4 -3 -7 -37 -7 -75 l0 -68 288 0 c301 0 312 -2 312 -44
0 -11 -75 -150 -167 -310 -91 -160 -168 -294 -169 -297 -2 -3 21 -29 50 -58
l53 -52 254 442 c140 243 255 448 257 456 3 11 -73 13 -431 13 -238 0 -437 -3
-440 -7z"/>
<path d="M1340 1175 c0 -6 518 -886 526 -895 3 -2 27 19 55 46 l51 51 -139
239 c-203 349 -205 352 -201 376 6 43 35 48 326 48 l272 0 0 70 0 70 -445 0
c-245 0 -445 -2 -445 -5z"/>
<path d="M1210 942 c-24 -42 -131 -225 -238 -406 -106 -181 -194 -333 -195
-338 -1 -5 26 -22 60 -38 l63 -29 63 107 c36 59 110 185 166 280 141 239 119
246 324 -98 87 -146 162 -271 166 -279 7 -11 20 -7 70 20 33 18 61 37 61 41 0
9 -468 788 -484 805 -8 9 -22 -7 -56 -65z"/>
</g>
</svg>
